<svg xmlns="http://www.w3.org/2000/svg" viewBox="0 0 800 500" fill="none">
  <rect width="800" height="500" fill="url(#bg)"/>
  <defs>
    <linearGradient id="bg" x1="0" y1="0" x2="800" y2="500" gradientUnits="userSpaceOnUse">
      <stop stop-color="#1D4ED8"/>
      <stop offset="1" stop-color="#0B3D91"/>
    </linearGradient>
  </defs>
  <rect x="105" y="72" width="590" height="356" rx="24" fill="white" fill-opacity="0.12"/>
  <rect x="145" y="112" width="510" height="276" rx="18" fill="white" fill-opacity="0.93"/>
  <rect x="175" y="142" width="450" height="48" rx="10" fill="#F8FAFC"/>
  <rect x="195" y="158" width="80" height="16" rx="8" fill="#0B3D91"/>
  <rect x="300" y="158" width="60" height="16" rx="8" fill="#E2E8F0"/>
  <rect x="380" y="158" width="60" height="16" rx="8" fill="#E2E8F0"/>
  <rect x="175" y="210" width="140" height="100" rx="12" fill="#EEF4FF"/>
  <rect x="195" y="232" width="100" height="12" rx="6" fill="#0B3D91" fill-opacity="0.7"/>
  <rect x="195" y="256" width="70" height="10" rx="5" fill="#94A3B8"/>
  <rect x="335" y="210" width="140" height="100" rx="12" fill="#ECFDF5"/>
  <rect x="355" y="232" width="100" height="12" rx="6" fill="#10B981"/>
  <rect x="495" y="210" width="130" height="100" rx="12" fill="#F8FAFC"/>
  <rect x="175" y="330" width="450" height="38" rx="10" fill="#0B3D91" fill-opacity="0.08"/>
  <rect x="195" y="343" width="200" height="12" rx="6" fill="#0B3D91" fill-opacity="0.5"/>
</svg>
