<svg xmlns="http://www.w3.org/2000/svg" viewBox="0 0 800 500" fill="none">
  <rect width="800" height="500" fill="url(#bg)"/>
  <defs>
    <linearGradient id="bg" x1="0" y1="500" x2="800" y2="0" gradientUnits="userSpaceOnUse">
      <stop stop-color="#0A3580"/>
      <stop offset="1" stop-color="#2563EB"/>
    </linearGradient>
  </defs>
  <rect x="110" y="75" width="580" height="350" rx="24" fill="white" fill-opacity="0.12"/>
  <rect x="150" y="115" width="500" height="270" rx="16" fill="white" fill-opacity="0.94"/>
  <rect x="190" y="155" width="120" height="12" rx="6" fill="#0B3D91" fill-opacity="0.8"/>
  <rect x="190" y="200" width="60" height="140" rx="8" fill="#CBD5E1"/>
  <rect x="270" y="170" width="60" height="170" rx="8" fill="#0B3D91" fill-opacity="0.5"/>
  <rect x="350" y="150" width="60" height="190" rx="8" fill="#0B3D91" fill-opacity="0.75"/>
  <rect x="430" y="130" width="60" height="210" rx="8" fill="#10B981"/>
  <rect x="510" y="180" width="60" height="160" rx="8" fill="#0B3D91" fill-opacity="0.6"/>
  <rect x="190" y="360" width="380" height="1" fill="#E2E8F0"/>
  <rect x="600" y="155" width="30" height="30" rx="15" fill="#10B981" fill-opacity="0.2"/>
  <rect x="608" y="163" width="14" height="14" rx="7" fill="#10B981"/>
</svg>
