<svg xmlns="http://www.w3.org/2000/svg" viewBox="0 0 800 500" fill="none">
  <rect width="800" height="500" fill="url(#bg)"/>
  <defs>
    <linearGradient id="bg" x1="400" y1="0" x2="400" y2="500" gradientUnits="userSpaceOnUse">
      <stop stop-color="#102A5C"/>
      <stop offset="1" stop-color="#0B3D91"/>
    </linearGradient>
  </defs>
  <rect x="90" y="65" width="620" height="370" rx="24" fill="white" fill-opacity="0.1"/>
  <rect x="130" y="105" width="280" height="140" rx="16" fill="white" fill-opacity="0.92"/>
  <path d="M160 205 L210 175 L260 190 L310 150 L360 165" stroke="#10B981" stroke-width="4" stroke-linecap="round" stroke-linejoin="round"/>
  <circle cx="210" cy="175" r="6" fill="#10B981"/>
  <circle cx="310" cy="150" r="6" fill="#10B981"/>
  <rect x="130" y="265" width="130" height="130" rx="16" fill="white" fill-opacity="0.85"/>
  <rect x="150" y="340" width="90" height="35" rx="8" fill="#0B3D91" fill-opacity="0.15"/>
  <rect x="280" y="265" width="130" height="130" rx="16" fill="white" fill-opacity="0.85"/>
  <circle cx="345" cy="330" r="40" stroke="#10B981" stroke-width="12" fill="none" stroke-dasharray="180 60"/>
  <rect x="430" y="105" width="240" height="290" rx="16" fill="white" fill-opacity="0.9"/>
  <rect x="460" y="135" width="180" height="14" rx="7" fill="#0B3D91"/>
  <rect x="460" y="170" width="180" height="10" rx="5" fill="#E2E8F0"/>
  <rect x="460" y="200" width="180" height="10" rx="5" fill="#E2E8F0"/>
  <rect x="460" y="230" width="140" height="10" rx="5" fill="#E2E8F0"/>
  <rect x="460" y="280" width="180" height="80" rx="10" fill="#EEF4FF"/>
  <rect x="480" y="320" width="140" height="12" rx="6" fill="#0B3D91" fill-opacity="0.6"/>
</svg>
