<svg xmlns="http://www.w3.org/2000/svg" viewBox="0 0 800 500" fill="none">
  <rect width="800" height="500" fill="url(#bg)"/>
  <defs>
    <linearGradient id="bg" x1="800" y1="0" x2="0" y2="500" gradientUnits="userSpaceOnUse">
      <stop stop-color="#0F4DA8"/>
      <stop offset="1" stop-color="#10B981"/>
    </linearGradient>
  </defs>
  <rect x="100" y="70" width="600" height="360" rx="24" fill="white" fill-opacity="0.14"/>
  <rect x="140" y="110" width="520" height="72" rx="14" fill="white" fill-opacity="0.92"/>
  <rect x="168" y="134" width="48" height="48" rx="10" fill="#EEF4FF"/>
  <rect x="184" y="150" width="16" height="16" rx="2" fill="#0B3D91"/>
  <rect x="236" y="132" width="200" height="14" rx="7" fill="#0B3D91" fill-opacity="0.85"/>
  <rect x="236" y="156" width="140" height="10" rx="5" fill="#94A3B8"/>
  <rect x="140" y="200" width="520" height="72" rx="14" fill="white" fill-opacity="0.85"/>
  <rect x="168" y="224" width="48" height="48" rx="10" fill="#ECFDF5"/>
  <rect x="184" y="240" width="16" height="16" rx="2" fill="#10B981"/>
  <rect x="236" y="222" width="180" height="14" rx="7" fill="#0B3D91" fill-opacity="0.7"/>
  <rect x="236" y="246" width="120" height="10" rx="5" fill="#94A3B8"/>
  <rect x="140" y="290" width="520" height="72" rx="14" fill="white" fill-opacity="0.7"/>
  <rect x="168" y="314" width="48" height="48" rx="10" fill="#F8FAFC"/>
  <rect x="236" y="312" width="160" height="14" rx="7" fill="#CBD5E1"/>
  <rect x="236" y="336" width="100" height="10" rx="5" fill="#E2E8F0"/>
</svg>
