<svg xmlns="http://www.w3.org/2000/svg" viewBox="0 0 800 500" fill="none">
  <rect width="800" height="500" fill="url(#bg)"/>
  <defs>
    <linearGradient id="bg" x1="0" y1="0" x2="800" y2="500" gradientUnits="userSpaceOnUse">
      <stop stop-color="#0B3D91"/>
      <stop offset="1" stop-color="#1E5BB8"/>
    </linearGradient>
  </defs>
  <rect x="120" y="80" width="560" height="340" rx="24" fill="white" fill-opacity="0.12"/>
  <rect x="160" y="120" width="200" height="200" rx="16" fill="white" fill-opacity="0.95"/>
  <rect x="184" y="144" width="152" height="152" rx="8" stroke="#0B3D91" stroke-width="4" stroke-dasharray="8 8" fill="#EEF4FF"/>
  <rect x="208" y="168" width="28" height="28" fill="#0B3D91"/><rect x="248" y="168" width="28" height="28" fill="#0B3D91"/>
  <rect x="288" y="168" width="28" height="28" fill="#0B3D91"/><rect x="208" y="208" width="28" height="28" fill="#10B981"/>
  <rect x="248" y="208" width="28" height="28" fill="#0B3D91"/><rect x="288" y="208" width="28" height="28" fill="#0B3D91"/>
  <rect x="208" y="248" width="28" height="28" fill="#0B3D91"/><rect x="248" y="248" width="28" height="28" fill="#0B3D91"/>
  <rect x="288" y="248" width="28" height="28" fill="#10B981"/>
  <rect x="400" y="140" width="240" height="16" rx="8" fill="white" fill-opacity="0.9"/>
  <rect x="400" y="172" width="180" height="12" rx="6" fill="white" fill-opacity="0.5"/>
  <rect x="400" y="220" width="240" height="12" rx="6" fill="white" fill-opacity="0.35"/>
  <rect x="400" y="248" width="200" height="12" rx="6" fill="white" fill-opacity="0.35"/>
  <rect x="400" y="300" width="240" height="80" rx="12" fill="white" fill-opacity="0.15"/>
  <rect x="420" y="340" width="200" height="12" rx="6" fill="#10B981" fill-opacity="0.85"/>
</svg>
